<svg xmlns="http://www.w3.org/2000/svg" viewBox="0 0 560 380" role="img" aria-label="Adults talking about cities on a map">
  <rect width="560" height="380" rx="34" fill="#E3F8EF"/>
  <rect x="70" y="66" width="420" height="252" rx="34" fill="#fff"/>
  <path d="M112 134c50 22 92 23 126 2s72-12 116 18 82 34 122 13" fill="none" stroke="#3C4AF5" stroke-width="11" stroke-linecap="round"/>
  <path d="M152 238c42-54 88-83 138-86s92 16 136 56" fill="none" stroke="#20A873" stroke-width="9" stroke-linecap="round" stroke-dasharray="1 20"/>
  <g fill="none" stroke="#17182B" stroke-linecap="round" stroke-linejoin="round" stroke-width="8">
    <circle cx="146" cy="244" r="25"/>
    <path d="M106 306c12-34 25-51 40-51s28 17 40 51"/>
    <circle cx="420" cy="226" r="25"/>
    <path d="M380 306c12-34 25-51 40-51s28 17 40 51"/>
  </g>
  <circle cx="178" cy="132" r="16" fill="#FFF0E8" stroke="#17182B" stroke-width="7"/>
  <circle cx="410" cy="166" r="16" fill="#EEF0FF" stroke="#17182B" stroke-width="7"/>
  <path d="M112 94h124M330 94h96" stroke="#3C4AF5" stroke-width="8" stroke-linecap="round" opacity=".28"/>
</svg>
