<svg xmlns="http://www.w3.org/2000/svg" viewBox="0 0 560 380" role="img" aria-label="Adults practicing a first meeting at a cafe">
  <rect width="560" height="380" rx="34" fill="#E3F8EF"/>
  <rect x="68" y="80" width="424" height="224" rx="34" fill="#fff"/>
  <path d="M130 250h300" stroke="#3C4AF5" stroke-width="18" stroke-linecap="round" opacity=".14"/>
  <path d="M160 272h240" stroke="#17182B" stroke-width="10" stroke-linecap="round" opacity=".16"/>
  <g fill="none" stroke="#17182B" stroke-linecap="round" stroke-linejoin="round" stroke-width="10">
    <circle cx="168" cy="154" r="34"/>
    <path d="M116 246c14-46 31-69 52-69s38 23 52 69"/>
    <circle cx="396" cy="154" r="34"/>
    <path d="M344 246c14-46 31-69 52-69s38 23 52 69"/>
  </g>
  <path d="M236 116h88c18 0 32 14 32 32v22c0 18-14 32-32 32h-34l-35 28 8-28h-27c-18 0-32-14-32-32v-22c0-18 14-32 32-32z" fill="#3C4AF5"/>
  <path d="M254 154h74M254 176h48" stroke="#fff" stroke-width="8" stroke-linecap="round"/>
  <circle cx="462" cy="86" r="28" fill="#FFF0E8"/>
</svg>
