<svg xmlns="http://www.w3.org/2000/svg" viewBox="0 0 520 360" role="img" aria-label="Adults meeting at a cafe table">
  <rect width="520" height="360" rx="34" fill="#E3F8EF"/>
  <rect x="72" y="210" width="376" height="38" rx="19" fill="#3C4AF5" opacity=".18"/>
  <rect x="110" y="236" width="300" height="20" rx="10" fill="#17182B" opacity=".12"/>
  <g fill="none" stroke="#17182B" stroke-linecap="round" stroke-linejoin="round" stroke-width="10">
    <circle cx="170" cy="128" r="36"/>
    <path d="M116 224c14-46 32-70 54-70s40 24 54 70"/>
    <circle cx="350" cy="126" r="36"/>
    <path d="M296 224c14-46 32-70 54-70s40 24 54 70"/>
  </g>
  <rect x="230" y="106" width="62" height="78" rx="16" fill="#fff" stroke="#3C4AF5" stroke-width="8"/>
  <path d="M244 134h34M244 154h26" stroke="#3C4AF5" stroke-width="7" stroke-linecap="round"/>
  <path d="M86 92h86M372 86h68M232 286h72" stroke="#F19B45" stroke-width="9" stroke-linecap="round" opacity=".75"/>
</svg>
