<svg xmlns="http://www.w3.org/2000/svg" viewBox="0 0 760 520" role="img" aria-label="Adults meeting and exchanging contacts in a city cafe">
  <rect width="760" height="520" rx="42" fill="#EEF0FF"/>
  <rect x="50" y="58" width="660" height="396" rx="38" fill="#fff"/>
  <rect x="96" y="116" width="190" height="210" rx="30" fill="#E3F8EF"/>
  <rect x="454" y="104" width="186" height="230" rx="30" fill="#FFF0E8"/>
  <path d="M120 366h520" stroke="#3C4AF5" stroke-width="18" stroke-linecap="round" opacity=".12"/>
  <path d="M114 108h126M492 94h110M322 402h116" stroke="#3C4AF5" stroke-width="10" stroke-linecap="round" opacity=".26"/>
  <g fill="none" stroke="#17182B" stroke-linecap="round" stroke-linejoin="round" stroke-width="12">
    <circle cx="218" cy="205" r="42"/>
    <path d="M156 344c18-58 40-86 62-86s44 28 62 86"/>
    <circle cx="530" cy="202" r="42"/>
    <path d="M468 344c18-58 40-86 62-86s44 28 62 86"/>
  </g>
  <path d="M320 164h120c24 0 43 19 43 43v31c0 24-19 43-43 43h-55l-48 40 12-40h-29c-24 0-43-19-43-43v-31c0-24 19-43 43-43z" fill="#3C4AF5"/>
  <path d="M342 210h98M342 238h64" stroke="#fff" stroke-width="11" stroke-linecap="round"/>
  <rect x="318" y="320" width="128" height="58" rx="18" fill="#FFF5CC"/>
  <path d="M338 346h88M338 366h54" stroke="#F19B45" stroke-width="8" stroke-linecap="round"/>
  <circle cx="654" cy="104" r="34" fill="#FFF5CC"/>
</svg>
