<svg xmlns="http://www.w3.org/2000/svg" viewBox="0 0 720 520" role="img" aria-label="Adults meeting in a bright city cafe">
  <defs>
    <linearGradient id="g" x1="0" x2="1" y1="0" y2="1">
      <stop offset="0" stop-color="#EEF0FF"/>
      <stop offset="1" stop-color="#E3F8EF"/>
    </linearGradient>
  </defs>
  <rect width="720" height="520" rx="40" fill="url(#g)"/>
  <circle cx="590" cy="92" r="58" fill="#FFF0E8"/>
  <rect x="70" y="88" width="250" height="300" rx="30" fill="#fff"/>
  <rect x="398" y="108" width="210" height="265" rx="30" fill="#fff"/>
  <path d="M110 352h480" stroke="#3C4AF5" stroke-width="12" stroke-linecap="round" opacity=".16"/>
  <g fill="none" stroke="#17182B" stroke-linecap="round" stroke-linejoin="round" stroke-width="12">
    <path d="M176 212c0 34 22 61 50 61s50-27 50-61-22-61-50-61-50 27-50 61z"/>
    <path d="M142 367c18-54 48-80 84-80s66 26 84 80"/>
    <path d="M455 220c0 31 20 56 46 56s46-25 46-56-20-56-46-56-46 25-46 56z"/>
    <path d="M418 367c18-49 46-73 83-73s65 24 83 73"/>
  </g>
  <path d="M322 202h94c20 0 36 16 36 36v24c0 20-16 36-36 36h-55l-44 34 10-34h-5c-20 0-36-16-36-36v-24c0-20 16-36 36-36z" fill="#3C4AF5"/>
  <circle cx="340" cy="250" r="8" fill="#fff"/>
  <circle cx="369" cy="250" r="8" fill="#fff"/>
  <circle cx="398" cy="250" r="8" fill="#fff"/>
  <path d="M88 118h180M444 138h126M462 398h86" stroke="#3C4AF5" stroke-width="10" stroke-linecap="round" opacity=".25"/>
</svg>
